<?xml version="1.0" encoding="UTF-8"?>
<svg width="253px" height="253px" viewBox="0 0 253 253" version="1.1" xmlns="http://www.w3.org/2000/svg" xmlns:xlink="http://www.w3.org/1999/xlink">
    <title>编组 10</title>
    <g id="网页再来一版" stroke="none" stroke-width="1" fill="none" fill-rule="evenodd">
        <g id="1首页" transform="translate(-391.000000, -1161.000000)">
            <g id="编组-10" transform="translate(391.000000, 1169.964992)">
                <polygon id="路径-3" fill="#923BD3" points="9.13717977e-14 70.0350077 209.641892 70.0350077 253 104.550651 209.641892 137.035008 9.13717977e-14 137.035008 43.1273546 104.550651"></polygon>
                <text id="R1" font-family="OpenSansRoman-Bold, Open Sans" font-size="48" font-weight="bold" fill="#FFFFFF">
                    <tspan x="97.4335938" y="121.035008">R1</tspan>
                </text>
                <path id="路径-4" d="M35.8461831,-7 C39.7121764,-7 42.8461831,-3.86599325 42.8461831,-4.2862638e-16 C42.8461831,3.52639391 40.2385926,6.44375243 36.8464082,6.92907894 L36.8461831,70.0350077 L34.8461831,70.0350077 L34.8461749,6.92910996 C31.4538847,6.44387676 28.8461831,3.52646906 28.8461831,4.2862638e-16 C28.8461831,-3.86599325 31.9801899,-7 35.8461831,-7 Z" fill="#923BD3" fill-rule="nonzero"></path>
                <path id="路径-4" d="M152.846183,130.035008 C156.712176,130.035008 159.846183,133.169014 159.846183,137.035008 C159.846183,140.561402 157.238593,143.47876 153.846408,143.964087 L153.846183,236.035008 L151.846183,236.035008 L151.846175,143.964118 C148.453885,143.478884 145.846183,140.561477 145.846183,137.035008 C145.846183,133.169014 148.98019,130.035008 152.846183,130.035008 Z" transform="translate(152.846183, 186.535008) scale(1, -1) translate(-152.846183, -186.535008) " fill="#923BD3" fill-rule="nonzero"></path>
            </g>
        </g>
    </g>
</svg>