<?xml version="1.0" encoding="UTF-8"?>
<svg width="253px" height="253px" viewBox="0 0 253 253" version="1.1" xmlns="http://www.w3.org/2000/svg" xmlns:xlink="http://www.w3.org/1999/xlink">
    <title>编组 12</title>
    <g id="网页再来一版" stroke="none" stroke-width="1" fill="none" fill-rule="evenodd">
        <g id="1首页" transform="translate(-685.000000, -1161.000000)">
            <g id="编组-12" transform="translate(685.000000, 1169.964992)">
                <polygon id="路径-3备份" fill="#6D9F26" points="9.13717977e-14 70.0350077 209.641892 70.0350077 253 104.550651 209.641892 137.035008 9.13717977e-14 137.035008 43.1273546 104.550651"></polygon>
                <text id="R2" font-family="OpenSansRoman-Bold, Open Sans" font-size="48" font-weight="bold" fill="#FFFFFF">
                    <tspan x="97.4335938" y="121.035008">R2</tspan>
                </text>
                <path id="路径-4" d="M44.8461831,-7 C48.7121764,-7 51.8461831,-3.86599325 51.8461831,-4.2862638e-16 C51.8461831,3.52639391 49.2385926,6.44375243 45.8464082,6.92907894 L45.8461831,70.0350077 L43.8461831,70.0350077 L43.8461749,6.92910996 C40.4538847,6.44387676 37.8461831,3.52646906 37.8461831,4.2862638e-16 C37.8461831,-3.86599325 40.9801899,-7 44.8461831,-7 Z" fill="#6D9F26" fill-rule="nonzero"></path>
                <path id="路径-4" d="M157.846183,130.035008 C161.712176,130.035008 164.846183,133.169014 164.846183,137.035008 C164.846183,140.561402 162.238593,143.47876 158.846408,143.964087 L158.846183,236.035008 L156.846183,236.035008 L156.846175,143.964118 C153.453885,143.478884 150.846183,140.561477 150.846183,137.035008 C150.846183,133.169014 153.98019,130.035008 157.846183,130.035008 Z" transform="translate(157.846183, 186.535008) scale(1, -1) translate(-157.846183, -186.535008) " fill="#6D9F26" fill-rule="nonzero"></path>
            </g>
        </g>
    </g>
</svg>