<?xml version="1.0" encoding="UTF-8"?>
<svg width="34px" height="25px" viewBox="0 0 34 25" version="1.1" xmlns="http://www.w3.org/2000/svg" xmlns:xlink="http://www.w3.org/1999/xlink">
    <title>形状</title>
    <g id="网页再来一版" stroke="none" stroke-width="1" fill="none" fill-rule="evenodd">
        <g id="6-Airdrop" transform="translate(-579.000000, -1063.000000)" fill="#FFFFFF" fill-rule="nonzero">
            <path d="M612.309375,1066.90625 C611.9375,1065.34375 610.76875,1064.17188 609.28125,1063.72545 C606.625,1063 596,1063 596,1063 C596,1063 585.375,1063 582.71875,1063.72545 C581.23125,1064.11607 580.115625,1065.34375 579.690625,1066.90625 C579,1069.69643 579,1075.5 579,1075.5 C579,1075.5 579,1081.30357 579.690625,1084.09375 C580.0625,1085.65625 581.23125,1086.82812 582.71875,1087.27455 C585.375,1088 596,1088 596,1088 C596,1088 606.625,1088 609.28125,1087.27455 C610.76875,1086.88393 611.884375,1085.65625 612.309375,1084.09375 C613,1081.30357 613,1075.5 613,1075.5 C613,1075.5 613,1069.69643 612.309375,1066.90625 Z M592.6,1080.85714 L592.6,1070.14286 L601.41875,1075.5 L592.6,1080.85714 Z" id="形状"></path>
        </g>
    </g>
</svg>