<?xml version="1.0" encoding="UTF-8"?>
<svg width="20px" height="20px" viewBox="0 0 20 20" version="1.1" xmlns="http://www.w3.org/2000/svg" xmlns:xlink="http://www.w3.org/1999/xlink">
    <title>编组 7</title>
    <g id="网页再来一版" stroke="none" stroke-width="1" fill="none" fill-rule="evenodd">
        <g id="7-form" transform="translate(-790.000000, -1622.000000)" fill="#D81F1F" fill-rule="nonzero">
            <g id="编组-10" transform="translate(790.000000, 1620.000000)">
                <g id="编组-7" transform="translate(0.000000, 2.000000)">
                    <path d="M10,20 C4.4775,20 0,15.5225 0,10 C0,4.4775 4.4775,0 10,0 C15.5225,0 20,4.4775 20,10 C20,15.5225 15.5225,20 10,20 Z M10,18.3333333 C14.6025,18.3333333 18.3333333,14.6025 18.3333333,10 C18.3333333,5.3975 14.6025,1.66666666 10,1.66666666 C5.3975,1.66666666 1.66666666,5.3975 1.66666666,10 C1.66666666,14.6025 5.3975,18.3333333 10,18.3333333 Z" id="形状"></path>
                    <g id="!" transform="translate(8.862545, 4.666182)">
                        <path d="M1.712,0 L1.536,8 L0.32,8 L0.144,0 L1.712,0 Z M0.992,11.248 C0.714666667,11.248 0.48,11.152 0.288,10.96 C0.096,10.768 0,10.5333333 0,10.256 C0,9.97866667 0.096,9.744 0.288,9.552 C0.48,9.36 0.714666667,9.264 0.992,9.264 C1.25866667,9.264 1.48533333,9.36 1.672,9.552 C1.85866667,9.744 1.952,9.97866667 1.952,10.256 C1.952,10.5333333 1.85866667,10.768 1.672,10.96 C1.48533333,11.152 1.25866667,11.248 0.992,11.248 Z" id="形状"></path>
                    </g>
                </g>
            </g>
        </g>
    </g>
</svg>