<?xml version="1.0" encoding="UTF-8"?>
<svg width="34px" height="42px" viewBox="0 0 34 42" version="1.1" xmlns="http://www.w3.org/2000/svg" xmlns:xlink="http://www.w3.org/1999/xlink">
    <title>编组</title>
    <g id="网页再来一版" stroke="none" stroke-width="1" fill="none" fill-rule="evenodd">
        <g id="6-Airdrop" transform="translate(-579.000000, -950.000000)" fill="#FFFFFF">
            <g id="编组" transform="translate(579.000000, 950.000000)">
                <path d="M21.8541061,11.793448 C24.9411679,13.4444492 26.0270332,16.6352907 27.5424284,19.48121 C27.7618622,19.8930277 27.9862104,20.323994 27.9891942,20.7852995 C27.9923536,21.2436208 27.7766058,21.6748358 27.5657724,22.0873996 C26.9359755,23.3191226 26.6818943,24.5503482 26.052343,25.7818225 C25.738796,26.3940781 26.1469477,27.0389111 25.5365632,27.3980082 C25.1532298,27.6233143 25.0566593,27.7247766 24.7465525,28.0346347 C24.4934542,28.2877932 24.0147791,28.6401759 23.9297577,28.9791297 C23.7339137,29.7604892 23.4628774,30.5204621 23.2586787,31.2993348 C23.1643197,31.659924 23.1141915,33.5494114 22.7352813,33.6861867 C22.5989031,33.7354257 22.4485185,33.69688 22.3037856,33.6924037 C21.8740099,33.6794722 21.3737108,34.3098817 21.2631339,34.6838997 C21.1333903,35.1228238 21.2319267,35.5886056 21.2852493,36.0419533 C21.4744587,37.6524193 21.055495,39.3208283 20.1207515,40.6786331 C19.7959011,41.1508807 19.3700571,40.7925296 19.1466917,41.4035418 C19.0840315,41.5746352 18.9840208,41.7315536 18.8555058,41.8591276 C18.7581982,41.9561137 18.613711,42.0401683 18.4910935,41.9794898 C18.4284332,41.9484045 18.3873969,41.8854879 18.3566811,41.822074 C18.1463392,41.3891182 18.3158905,40.6813686 18.3104845,40.2073803 C18.3031127,39.5622987 18.2785401,38.9174657 18.2539674,38.2728814 C18.2328349,37.722299 18.2114567,37.1724626 18.2011362,36.6226262 C18.1849183,35.7644239 18.3050785,34.9529739 18.4318734,34.0940255 C18.5147502,33.5340384 18.600064,32.2781521 18.649045,31.5473571 L18.6626106,31.3450923 L18.8117665,29.1442547 C18.963134,29.1661388 19.117696,29.1773295 19.2744695,29.1773295 C19.6553455,29.1773295 20.0489994,29.1121747 20.4372472,28.9808705 C21.2149715,28.7157753 21.8310078,28.2452685 22.3969159,27.7844604 C23.4085718,26.956846 24.4325141,26.0255311 25.0667341,24.8229039 C25.5087961,23.9848448 25.7351101,23.049551 25.7341272,22.1132625 C25.7333901,21.5952575 25.6083153,21.124502 25.527717,20.6196771 C25.4210717,19.9519654 25.4225461,19.6018208 25.026435,19.0325872 C24.6851209,18.5424346 24.2939243,18.0861027 23.8484222,17.6770205 C23.3363282,17.2067624 22.717589,16.7835053 22.006948,16.7263084 C21.1528027,16.6574234 20.3642664,17.1229565 19.6487109,17.5698385 C18.8523114,18.0672029 17.9197794,18.4961797 17.4651854,19.327773 C17.4612538,19.3352335 17.4580594,19.342694 17.4541277,19.3506518 C17.3845871,19.4931467 17.3295444,19.6336522 17.2971085,19.765205 C17.2573008,19.9265998 17.2735188,20.0832696 17.3140636,20.2329763 C17.2332196,21.4293864 17.1521299,22.6255479 17.0710401,23.821958 C17.001991,24.8415551 16.9329419,25.8609035 16.8638927,26.8807492 C16.8027068,27.7844604 16.7026961,28.8853765 16.40635,29.7420868 C16.2820124,30.1019299 16.0987005,30.4737098 16.1881449,30.8427542 C16.2218094,30.9800268 16.2915957,31.1068547 16.3365637,31.2408945 C16.4351,31.531604 16.4149504,32.6655949 16.393818,32.9702306 C16.3083051,34.1982233 16.0817453,35.4324332 16.1050893,36.6579391 C16.1173757,37.3152062 16.0967346,37.9607852 16.0822368,38.6088511 C16.0635616,39.4436773 16.2461363,40.2193171 16.055944,41.0568788 C15.9952496,41.3244608 15.8866385,41.6104454 15.6470552,41.7390141 C14.8228886,42.1809224 14.1867027,37.3724031 14.050816,36.7919788 C14.0279634,36.693998 13.9898758,36.5798529 13.8886365,36.5502597 C13.7173651,36.4997772 13.6163715,36.7270728 13.5996621,36.8956793 C13.5365104,37.5315597 13.0138502,41.3652447 11.9759016,39.6717189 C11.4905918,38.8799147 11.5124614,37.302026 11.2701751,36.3876215 C11.0015961,35.3737442 10.6882948,34.3703114 10.3312542,33.3810536 C10.192173,32.9960935 10.033188,31.7733231 9.70416023,31.511212 C9.32967307,31.2127934 8.77752567,31.1322203 8.47700218,30.7666575 C8.07573084,30.2782456 8.25928852,29.4409326 7.71353,29.1012327 C7.17366893,28.7655117 7.149342,29.234775 6.57188477,28.9609759 C6.133263,28.7530776 6.01482284,28.2233845 5.94651088,27.7640684 C5.52779295,24.937049 5.10907503,22.110527 4.69060283,19.284005 C4.63703446,18.922421 4.58592335,18.5404451 4.73385069,18.2029834 C4.92453444,17.7680382 5.39411775,17.5151284 5.81897883,17.269679 C7.17096593,16.4895629 8.37011116,15.4734474 9.33851923,14.2879793 C9.85380766,13.6575699 10.3088931,12.9744398 10.9268952,12.43281 C11.5446516,11.8909314 12.3749614,11.4960241 13.2096942,11.6044495 C14.146895,11.7263038 14.9295339,12.4522072 15.8750894,12.4713557 C16.8995231,12.492245 17.7185294,11.6922344 18.6871832,11.3756619 C19.7253776,11.0362107 20.8974929,11.2819087 21.8541061,11.793448 Z M10.2106025,18.2892761 C8.72346584,18.6046052 7.29112618,20.1897056 6.70433135,21.4736518 C6.21902155,22.5360223 6.23351941,23.8204659 6.74364758,24.9967328 C7.1530279,25.9437146 7.86514324,26.8188273 8.85959831,27.5986948 C9.65624357,28.2221411 10.4214358,28.6013814 11.1998973,28.7573052 C11.4579101,28.8082851 11.71494,28.8329046 11.9677926,28.8329046 C12.8027712,28.8329046 13.5863929,28.5598515 14.1557412,28.0505503 C14.8882518,27.3957701 15.1224291,26.5005141 15.2352176,25.8837822 C15.4620231,24.6423606 15.4028031,23.353192 15.0828672,22.1311676 C14.7906984,21.0160766 14.0468843,20.222283 13.7441493,19.1178852 C13.6795232,18.8821345 13.5519912,18.5857053 13.2949613,18.5986368 C13.2273865,18.6021183 13.1639891,18.628976 13.1037861,18.6583205 C12.8234122,18.794847 12.5169913,19.0000099 12.2238396,18.8900923 C12.0795981,18.8361283 11.9778674,18.7155174 11.8631131,18.6160445 C11.4316174,18.2422752 10.7816709,18.1684166 10.2106025,18.2892761 Z M20.3178476,19.9675694 C21.3782376,19.7444463 22.120235,19.7726803 22.5876783,20.0542701 C23.0213034,20.3153716 23.2637927,20.8200845 23.3910495,21.1963705 C23.7274785,22.1933034 23.6335389,23.3004237 23.1332793,24.2356417 C22.6808663,25.0801614 21.9238386,25.7882586 20.9273276,26.591052 C20.4856863,26.9453505 20.0520612,27.2764122 19.6029048,27.427826 C19.3118174,27.5247709 19.0084552,27.5230219 18.8080508,27.4388198 L18.8080508,27.4388198 L19.293781,20.3743381 C19.4435833,20.2391649 19.7815153,20.0805052 20.3178476,19.9675694 Z M10.2611675,20.5765884 C10.3658361,20.5765884 10.5048262,20.5923961 10.6771642,20.6237645 L10.6771642,20.6237645 C12.0057247,20.8660671 12.3766896,21.0816942 12.6619723,21.7737757 C13.1534277,22.9650352 13.2987466,24.3089379 13.0716402,25.5579943 C12.9754912,26.0831068 12.8289552,26.4276656 12.6227824,26.6131593 C12.389834,26.8223645 11.9679954,26.903873 11.5490777,26.8189065 C11.1155551,26.7314701 10.6501451,26.4899085 10.1263155,26.0786609 C9.40726678,25.5132881 8.90315377,24.9032092 8.6278511,24.2652197 C8.33721327,23.5931448 8.31700981,22.8570981 8.5735695,22.2944423 C8.78582761,21.8298437 9.18843646,21.4176082 9.69279289,20.927322 C9.81790833,20.8058002 9.9895161,20.6393252 10.0934544,20.5993119 C10.1326443,20.5835042 10.1886298,20.5765884 10.2611675,20.5765884 Z M9.65614435,2.05355603e-05 C9.70981866,0.000288992128 9.76817101,0.00301388787 9.81076576,0.0359603546 C9.85754612,0.0721271526 9.87379614,0.136038344 9.8750272,0.195490614 C9.87970524,0.399857795 9.74330355,0.584159835 9.57711016,0.701825787 C9.4114092,0.819244022 9.21567032,0.885136955 9.03051858,0.96886557 C7.58426678,1.62333598 6.61271254,3.21095933 6.18307186,4.68240303 C5.64337422,6.53112093 5.70591217,8.49081641 5.97305266,10.391555 C6.05750352,10.9942524 6.18553398,11.6383187 6.64693607,12.0641456 C7.21150117,12.5853438 8.48515805,12.1780958 8.80252587,12.4961654 C9.31981818,13.0151342 7.98263849,13.7949498 7.68472145,14.0399427 C6.1244733,15.3211392 4.65975557,16.7051385 3.30484859,18.1788116 C3.12757564,18.3715361 2.90302991,18.5845734 2.63465836,18.5496452 C2.52410898,18.5350298 2.4253778,18.4785502 2.33280193,18.4198411 C1.04535714,17.6055927 0.308443351,16.1760133 0.0866059544,14.7320662 C-0.13498523,13.2878715 0.102117337,11.817171 0.420470005,10.3893256 C0.949334298,8.01693227 1.72958148,5.63908916 3.25043564,3.68211858 C4.01591008,2.69719262 4.97121429,1.85420897 6.05282548,1.23640079 C7.10759952,0.633703393 8.42557464,-0.00416992818 9.65614435,2.05355603e-05 Z M30.5978894,3.95913947 C32.0144215,5.68998426 32.7419951,7.8266584 33.4004039,9.92616868 C33.8689153,11.4191648 34.3110317,13.050906 33.7051685,14.4988099 C33.0037456,16.1751477 31.1284779,17.084919 29.3930061,17.824232 C29.192844,17.9097089 28.9792399,17.9964246 28.7614811,17.9694188 C28.444741,17.9300251 28.2194058,17.665914 28.0331744,17.4196415 C27.5289808,16.7524263 25.3851195,14.3201756 25.8375007,13.5112423 C26.0694346,13.0962459 27.1230353,13.0105212 27.5255592,12.8053767 C28.1001395,12.5122778 28.5904023,12.0774606 28.8922341,11.5242146 C29.761803,9.92914179 29.0266532,8.00454941 28.2866153,6.35174871 C27.7012816,5.04432415 27.0849092,3.69453279 25.9804736,2.73471419 C25.459661,2.28230615 24.8056513,1.87746784 24.6316398,1.2283391 C26.9248284,0.957042932 29.1816016,2.22829467 30.5978894,3.95913947 Z" id="形状结合"></path>
            </g>
        </g>
    </g>
</svg>