<?xml version="1.0" encoding="UTF-8"?>
<svg width="55px" height="55px" viewBox="0 0 55 55" version="1.1" xmlns="http://www.w3.org/2000/svg" xmlns:xlink="http://www.w3.org/1999/xlink">
    <title>编组 8</title>
    <defs>
        <linearGradient x1="50%" y1="-14.5625411%" x2="50%" y2="100%" id="linearGradient-1">
            <stop stop-color="#FDCEE0" offset="0%"></stop>
            <stop stop-color="#FF6EA3" offset="100%"></stop>
        </linearGradient>
    </defs>
    <g id="网页再来一版" stroke="none" stroke-width="1" fill="none" fill-rule="evenodd">
        <g id="3-Reward" transform="translate(-476.000000, -1654.000000)">
            <g id="编组-8" transform="translate(476.000000, 1654.000000)">
                <rect id="矩形" fill="#FBE6F0" x="0" y="0" width="55" height="55" rx="18"></rect>
                <path d="M41,36.1971565 C41,36.5872958 40.9331865,36.9517682 40.7995595,37.2905734 C40.6659325,37.6293787 40.4757709,37.9271167 40.2290749,38.1837873 C39.9823789,38.440458 39.6945668,38.6406611 39.3656388,38.7843967 C39.0367107,38.9281322 38.6769457,39 38.2863436,39 L15.8986784,39 C15.5080764,39 15.1380323,38.9281322 14.7885463,38.7843967 C14.4390602,38.6406611 14.1306902,38.440458 13.8634361,38.1837873 C13.5961821,37.9271167 13.3854626,37.6293787 13.2312775,37.2905734 C13.0770925,36.9517682 13,36.5872958 13,36.1971565 L13,20.8277176 C13,20.0474389 13.2723935,19.3852286 13.8171806,18.8410868 C14.3619677,18.296945 15.0249633,18.0248741 15.8061674,18.0248741 L38.1938326,18.0248741 C38.9750367,18.0248741 39.6380323,18.296945 40.1828194,18.8410868 C40.7276065,19.3852286 41,20.0474389 41,20.8277176 L41,25.0165827 L34,25.0165827 C33.2187959,25.0165827 32.5558003,25.2835202 32.0110132,25.8173952 C31.4662261,26.3512701 31.1938326,27.008347 31.1938326,27.7886258 C31.2143906,28.3225008 31.3274596,28.7947748 31.5330396,29.2054478 C31.6975037,29.5545199 31.9698972,29.8727915 32.3502203,30.1602627 C32.7305433,30.4477338 33.2804699,30.5914694 34,30.5914694 L41,30.5914694 L41,36.1971565 L41,36.1971565 Z M36.8061674,16.6080521 L22.8061674,16.6080521 C23.9162996,16.0331098 24.9647577,15.4787012 25.9515419,14.9448262 C26.814978,14.4930859 27.6681351,14.0413455 28.5110132,13.5896052 C29.3538913,13.1378648 30.0117474,12.7887927 30.4845815,12.5423889 C31.2041116,12.1522495 31.8465492,11.9725801 32.4118943,12.0033805 C32.9772394,12.034181 33.4552129,12.1317159 33.845815,12.2959851 C34.298091,12.5218553 34.6886931,12.8195932 35.0176211,13.189199 L36.8061674,16.6080521 Z M32.6123348,27.7886258 C32.6123348,27.3984864 32.7459618,27.069948 33.0132159,26.8030105 C33.2804699,26.536073 33.6093979,26.4026043 34,26.4026043 C34.3906021,26.4026043 34.7195301,26.536073 34.9867841,26.8030105 C35.2540382,27.069948 35.3876652,27.3984864 35.3876652,27.7886258 C35.3876652,28.1787652 35.2540382,28.512437 34.9867841,28.7896414 C34.7195301,29.0668457 34.3906021,29.2054478 34,29.2054478 C33.6093979,29.2054478 33.2804699,29.0668457 33.0132159,28.7896414 C32.7459618,28.512437 32.6123348,28.1787652 32.6123348,27.7886258 Z" id="形状" fill="url(#linearGradient-1)" fill-rule="nonzero"></path>
            </g>
        </g>
    </g>
</svg>