<?xml version="1.0" encoding="UTF-8"?>
<svg width="38px" height="31px" viewBox="0 0 38 31" version="1.1" xmlns="http://www.w3.org/2000/svg" xmlns:xlink="http://www.w3.org/1999/xlink">
    <title>形状结合</title>
    <g id="网页再来一版" stroke="none" stroke-width="1" fill="none" fill-rule="evenodd">
        <g id="1" transform="translate(-682.000000, -113.000000)" fill="#F7B62D">
            <path d="M684.5,113 L717.5,113 C718.880712,113 720,114.119288 720,115.5 C720,116.880712 718.880712,118 717.5,118 L684.5,118 C683.119288,118 682,116.880712 682,115.5 C682,114.119288 683.119288,113 684.5,113 Z M684.5,126 L717.5,126 C718.880712,126 720,127.119288 720,128.5 C720,129.880712 718.880712,131 717.5,131 L684.5,131 C683.119288,131 682,129.880712 682,128.5 C682,127.119288 683.119288,126 684.5,126 Z M684.5,139 L717.5,139 C718.880712,139 720,140.119288 720,141.5 C720,142.880712 718.880712,144 717.5,144 L684.5,144 C683.119288,144 682,142.880712 682,141.5 C682,140.119288 683.119288,139 684.5,139 Z" id="形状结合"></path>
        </g>
    </g>
</svg>