<?xml version="1.0" encoding="UTF-8"?>
<svg width="55px" height="55px" viewBox="0 0 55 55" version="1.1" xmlns="http://www.w3.org/2000/svg" xmlns:xlink="http://www.w3.org/1999/xlink">
    <title>编组 9</title>
    <defs>
        <linearGradient x1="50%" y1="0%" x2="50%" y2="100%" id="linearGradient-1">
            <stop stop-color="#A8E4FF" offset="0%"></stop>
            <stop stop-color="#53BEEF" offset="100%"></stop>
        </linearGradient>
        <linearGradient x1="50%" y1="0%" x2="50%" y2="117.263042%" id="linearGradient-2">
            <stop stop-color="#FFFFFF" offset="0%"></stop>
            <stop stop-color="#D2F1FF" offset="100%"></stop>
        </linearGradient>
    </defs>
    <g id="网页再来一版" stroke="none" stroke-width="1" fill="none" fill-rule="evenodd">
        <g id="3-Reward" transform="translate(-476.000000, -1772.000000)">
            <g id="编组-9" transform="translate(476.000000, 1772.000000)">
                <rect id="矩形" fill="#E6F6FB" x="0" y="0" width="55" height="55" rx="18"></rect>
                <g id="编组-7" transform="translate(13.000000, 14.000000)" fill-rule="nonzero">
                    <path d="M22.721978,0 C23.7417582,0 24.5543956,0.817059496 24.5543956,1.80695849 L24.5543956,1.80695849 L24.5543956,3.92817061 C27.0879121,4.50953983 29,6.75645344 29,9.42760943 C29,12.3815937 26.6736264,14.8327722 23.7417582,15.0684624 C22.3520754,18.1946302 19.3579577,20.4778527 15.7749497,20.8695687 L15.774,25.485 L19.2802198,25.4859708 C19.9813187,25.4859708 20.554945,26.0516274 20.554945,26.7429854 C20.554945,27.4343435 19.9813187,28 19.2802198,28 L9.71978022,28 C9.01868134,28 8.44505496,27.4343434 8.44505496,26.7429854 C8.44505496,26.0516274 9.01868134,25.4859708 9.71978022,25.4859708 L13.225,25.485 L13.2254708,20.8249231 C9.91094711,20.3432281 7.13470862,18.2347267 5.74620337,15.3468049 L5.62472529,15.0841751 C2.5175824,15.0213243 0,12.5072952 0,9.42760943 C0,6.63075195 2.08736266,4.28956229 4.79615385,3.84960717 L4.79615385,3.84960717 L4.79615385,1.80695849 C4.79615385,0.801346801 5.62472529,0 6.62857145,0 L6.62857145,0 Z M15.2648352,5.24803593 C14.8346154,4.41526377 14.1972528,4.41526377 13.8467033,5.24803593 L13.8467033,5.24803593 L12.7153846,7.55780024 L10.1659341,7.90347922 C9.30549452,8.0448934 9.09835165,8.67340067 9.7357143,9.30190798 L9.7357143,9.30190798 L11.5840659,11.1874299 L11.1538462,13.8428732 C11.0104396,14.7384961 11.5043956,15.0998878 12.2851648,14.6756454 L12.2851648,14.6756454 L14.5637363,13.4186307 L16.8423077,14.7542088 C17.6230769,15.1784512 18.117033,14.8327722 17.9736264,13.9214366 L17.9736264,13.9214366 L17.5434066,11.2659933 L19.3917583,9.38047138 C20.0291209,8.75196407 19.821978,8.12345681 18.9456044,7.96632997 L18.9456044,7.96632997 L16.3961538,7.62065094 Z M4.79615385,6.42648711 C3.50549451,6.81930414 2.54945056,8.01346801 2.54945056,9.42760943 C2.54945056,10.8731762 3.53736263,12.0987654 4.87582417,12.4444444 C4.82802197,12.0830527 4.79615385,11.721661 4.79615385,11.3445567 L4.79615385,11.3445567 Z M24.5543956,6.56790125 L24.5543956,11.3602694 C24.5543956,11.6902357 24.5225275,12.0044893 24.4906593,12.3344557 C25.6379121,11.8630752 26.4505494,10.7317621 26.4505494,9.44332212 C26.4505494,8.15488215 25.6697802,7.05499441 24.5543956,6.56790125 L24.5543956,6.56790125 Z" id="形状结合" fill="url(#linearGradient-1)"></path>
                    <path d="M19.3917583,9.38047138 L17.5434066,11.2659933 L17.9736264,13.9214366 C18.117033,14.8327722 17.6230769,15.1784512 16.8423077,14.7542088 L14.5637363,13.4186307 L12.2851648,14.6756454 C11.5043956,15.0998878 11.0104396,14.7384961 11.1538462,13.8428732 L11.5840659,11.1874299 L9.7357143,9.30190798 C9.09835165,8.67340067 9.30549452,8.0448934 10.1659341,7.90347922 L12.7153846,7.55780024 L13.8467033,5.24803593 C14.1972528,4.41526377 14.8346154,4.41526377 15.2648352,5.24803593 L16.3961538,7.62065094 L18.9456044,7.96632997 C19.821978,8.12345681 20.0291209,8.75196407 19.3917583,9.38047138 Z" id="路径" fill="url(#linearGradient-2)"></path>
                </g>
            </g>
        </g>
    </g>
</svg>