<?xml version="1.0" encoding="UTF-8"?>
<svg width="15px" height="27px" viewBox="0 0 15 27" version="1.1" xmlns="http://www.w3.org/2000/svg" xmlns:xlink="http://www.w3.org/1999/xlink">
    <title>路径</title>
    <g id="网页再来一版" stroke="none" stroke-width="1" fill="none" fill-rule="evenodd">
        <g id="3-Reward" transform="translate(-619.000000, -453.000000)" fill="#FFFFFF" fill-rule="nonzero">
            <path d="M625.541768,459.92711 L626.492947,459 L639.608997,471.762168 C640.126966,472.266317 640.133692,473.101763 639.608997,473.61246 C639.357409,473.859089 639.015172,473.997901 638.658097,473.998147 C638.301022,473.998392 637.958584,473.860052 637.706638,473.613769 L626.495638,462.707131 L615.294055,473.615079 C615.042519,473.861456 614.700404,474 614.343548,474 C613.986693,474 613.644578,473.861456 613.393042,473.615079 C612.870037,473.103261 612.868836,472.276733 613.390351,471.763477 L625.489298,459.982108 L625.543113,459.92842 L625.541768,459.92711 Z" id="路径" transform="translate(626.500000, 466.500000) rotate(-270.000000) translate(-626.500000, -466.500000) "></path>
        </g>
    </g>
</svg>