<?xml version="1.0" encoding="UTF-8"?>
<svg width="49px" height="48px" viewBox="0 0 49 48" version="1.1" xmlns="http://www.w3.org/2000/svg" xmlns:xlink="http://www.w3.org/1999/xlink">
    <title>编组 9</title>
    <g id="网页再来一版" stroke="none" stroke-width="1" fill="none" fill-rule="evenodd">
        <g id="1首页" transform="translate(-493.000000, -674.000000)">
            <g id="编组-9" transform="translate(493.666916, 674.000000)">
                <ellipse id="椭圆形备份" fill="#1E8C96" cx="24.166542" cy="24" rx="24.166542" ry="24"></ellipse>
                <path d="M39.35,16.59375 C39,15.15625 37.9,14.078125 36.5,13.6674107 C34,13 24,13 24,13 C24,13 14,13 11.5,13.6674107 C10.1,14.0267857 9.05,15.15625 8.65,16.59375 C8,19.1607143 8,24.5 8,24.5 C8,24.5 8,29.8392857 8.65,32.40625 C9,33.84375 10.1,34.921875 11.5,35.3325893 C14,36 24,36 24,36 C24,36 34,36 36.5,35.3325893 C37.9,34.9732143 38.95,33.84375 39.35,32.40625 C40,29.8392857 40,24.5 40,24.5 C40,24.5 40,19.1607143 39.35,16.59375 Z M20.8,29.4285714 L20.8,19.5714286 L29.1,24.5 L20.8,29.4285714 Z" id="形状" fill="#FFFFFF" fill-rule="nonzero"></path>
            </g>
        </g>
    </g>
</svg>