<?xml version="1.0" encoding="UTF-8"?>
<svg width="252px" height="253px" viewBox="0 0 252 253" version="1.1" xmlns="http://www.w3.org/2000/svg" xmlns:xlink="http://www.w3.org/1999/xlink">
    <title>编组 13</title>
    <g id="网页再来一版" stroke="none" stroke-width="1" fill="none" fill-rule="evenodd">
        <g id="1首页" transform="translate(-981.000000, -1161.000000)">
            <g id="编组-13" transform="translate(981.000000, 1169.964992)">
                <polygon id="路径-3备份-2" fill="#3D3C94" points="9.13717977e-14 70.0350077 208.641892 70.0350077 252 104.550651 208.641892 137.035008 9.13717977e-14 137.035008 43.1273546 104.550651"></polygon>
                <text id="R3" font-family="OpenSansRoman-Bold, Open Sans" font-size="48" font-weight="bold" fill="#FFFFFF">
                    <tspan x="96.4335938" y="121.035008">R3</tspan>
                </text>
                <path id="路径-4" d="M47.8461831,-7 C51.7121764,-7 54.8461831,-3.86599325 54.8461831,-4.2862638e-16 C54.8461831,3.52639391 52.2385926,6.44375243 48.8464082,6.92907894 L48.8461831,70.0350077 L46.8461831,70.0350077 L46.8461749,6.92910996 C43.4538847,6.44387676 40.8461831,3.52646906 40.8461831,4.2862638e-16 C40.8461831,-3.86599325 43.9801899,-7 47.8461831,-7 Z" fill="#3D3C94" fill-rule="nonzero"></path>
                <path id="路径-4" d="M160.846183,130.035008 C164.712176,130.035008 167.846183,133.169014 167.846183,137.035008 C167.846183,140.561402 165.238593,143.47876 161.846408,143.964087 L161.846183,236.035008 L159.846183,236.035008 L159.846175,143.964118 C156.453885,143.478884 153.846183,140.561477 153.846183,137.035008 C153.846183,133.169014 156.98019,130.035008 160.846183,130.035008 Z" transform="translate(160.846183, 186.535008) scale(1, -1) translate(-160.846183, -186.535008) " fill="#3D3C94" fill-rule="nonzero"></path>
            </g>
        </g>
    </g>
</svg>