<?xml version="1.0" encoding="UTF-8"?>
<svg width="34px" height="28px" viewBox="0 0 34 28" version="1.1" xmlns="http://www.w3.org/2000/svg" xmlns:xlink="http://www.w3.org/1999/xlink">
    <title>编组</title>
    <g id="网页再来一版" stroke="none" stroke-width="1" fill="none" fill-rule="evenodd">
        <g id="6-Airdrop" transform="translate(-579.000000, -1379.000000)" fill="#FFFFFF">
            <g id="编组" transform="translate(579.000000, 1379.000000)">
                <path d="M12.5229936,25.8276527 C12.5833617,24.8919047 12.6368566,24.0118686 12.697473,23.1324043 C12.7996598,21.6526072 12.9189882,20.1737904 13.0024601,18.6930131 C13.0241561,18.3083394 13.1575621,18.0419514 13.4470638,17.784876 C17.988497,13.751561 22.5223118,9.70983206 27.0487566,5.66017928 C27.2172737,5.5093813 27.2935412,5.25818748 27.4128695,5.05380149 C27.1540073,5.04334529 26.8891001,4.99580226 26.6382704,5.03517638 C26.4597333,5.06319573 26.2953566,5.20092346 26.1325534,5.30197281 C20.4733588,8.81623558 14.8139158,12.3300082 9.16043502,15.85293 C8.87797215,16.0288882 8.63741083,16.0643413 8.31718687,15.9640271 C6.01947438,15.2436114 3.71430903,14.5460687 1.41518877,13.8294107 C1.08983063,13.7280346 0.761160111,13.5995377 0.475136434,13.4197401 C-0.118938222,13.0465845 -0.161502255,12.4872596 0.378911908,12.0387051 C0.669076055,11.7979675 1.01016798,11.589497 1.36277042,11.4535664 C4.84051691,10.1128858 8.32480534,8.78895144 11.8082657,7.46305653 C18.1712574,5.04138475 24.5349115,2.62134676 30.8987313,0.202043964 C31.0655923,0.138489886 31.2351859,0.0721583802 31.4096654,0.0398095179 C32.42259,-0.147666843 33.1886598,0.333236572 33.2316378,1.35116378 C33.26501,2.13644058 33.0916071,2.94213964 32.9273961,3.7217799 C32.0359529,7.95490628 31.1197496,12.1830496 30.2099227,16.4125 C29.52335,19.6042544 28.8334648,22.795437 28.1446562,25.986783 C28.1361269,26.0266472 28.1235398,26.0656129 28.1117809,26.1048236 C27.6709864,27.5813531 26.5643216,27.9670071 25.2932801,27.063853 C23.9840634,26.1334965 22.6928164,25.1787966 21.3936197,24.234798 C20.294242,23.4360425 19.1849273,22.6499488 18.1017803,21.8301992 C17.810374,21.6097205 17.6576735,21.6566917 17.4190996,21.8885252 C16.2789797,22.9960653 15.1174122,24.0819578 13.9710817,25.1832078 C13.5836993,25.5555465 13.1617854,25.8284696 12.5229936,25.8276527" id="Fill-1"></path>
            </g>
        </g>
    </g>
</svg>