<?xml version="1.0" encoding="UTF-8"?>
<svg width="290px" height="1868px" viewBox="0 0 290 1868" version="1.1" xmlns="http://www.w3.org/2000/svg" xmlns:xlink="http://www.w3.org/1999/xlink">
    <title>编组 3</title>
    <g id="网页再来一版" stroke="none" stroke-width="1" fill="none" fill-rule="evenodd">
        <g id="6-Airdrop" transform="translate(-1582.000000, -715.000000)">
            <g id="编组-3" transform="translate(1582.500000, 715.000000)">
                <rect id="矩形" fill="#1F0A92" transform="translate(108.976810, 1436.110599) rotate(-39.000000) translate(-108.976810, -1436.110599) " x="69.4768096" y="1428.1106" width="79" height="16" rx="8"></rect>
                <rect id="矩形" fill="#1F0A92" transform="translate(114.976810, 410.110599) rotate(-39.000000) translate(-114.976810, -410.110599) " x="75.4768096" y="402.110599" width="79" height="16" rx="8"></rect>
                <rect id="矩形" fill="#D703D8" transform="translate(132.536788, 261.515842) rotate(-39.000000) translate(-132.536788, -261.515842) " x="100.036788" y="253.515842" width="65" height="16" rx="8"></rect>
                <rect id="矩形" fill="#D703D8" transform="translate(132.592978, 1446.927792) rotate(-39.000000) translate(-132.592978, -1446.927792) " x="53.5929776" y="1429.92779" width="158" height="34" rx="17"></rect>
                <circle id="椭圆形" fill="#FDF400" cx="154" cy="19.5" r="19.5"></circle>
                <circle id="椭圆形" fill="#EB0302" cx="116" cy="74.5" r="12"></circle>
                <circle id="椭圆形" fill="#FCFF00" cx="143" cy="144.5" r="12"></circle>
                <circle id="椭圆形" fill="#890959" cx="182" cy="253.5" r="18"></circle>
                <circle id="椭圆形" fill="#FF7E00" cx="202" cy="318.5" r="35"></circle>
                <rect id="矩形" fill="#03D7D8" opacity="0.76436942" transform="translate(187.543201, 285.681777) rotate(-39.000000) translate(-187.543201, -285.681777) " x="131.043201" y="269.181777" width="113" height="33" rx="16.5"></rect>
                <circle id="椭圆形" fill="#FF7E00" cx="35" cy="617.5" r="35"></circle>
                <circle id="椭圆形" fill="#FF7E00" cx="69" cy="1375.5" r="35"></circle>
                <circle id="椭圆形" fill="#FDF400" cx="143" cy="1523.5" r="22"></circle>
                <circle id="椭圆形" fill="#FDF400" cx="125" cy="1684.5" r="19"></circle>
                <circle id="椭圆形" fill="#EA0302" cx="145" cy="1505.5" r="12"></circle>
                <circle id="椭圆形" fill="#05BB07" opacity="0.714773996" cx="168" cy="1531.5" r="8"></circle>
                <circle id="椭圆形" fill="#EB0302" cx="114" cy="1576.5" r="11"></circle>
                <circle id="椭圆形" fill="#3FFC00" opacity="0.771228609" cx="116" cy="1672.5" r="9"></circle>
                <circle id="椭圆形" fill="#FF2E87" cx="169" cy="1699.5" r="6"></circle>
                <circle id="椭圆形" fill="#EB0302" cx="40" cy="1807.5" r="12"></circle>
                <circle id="椭圆形" fill="#FF2E87" cx="95" cy="1813.5" r="6"></circle>
                <circle id="椭圆形" fill="#05BC07" cx="120" cy="1858.5" r="9"></circle>
                <circle id="椭圆形" fill="#FCFF00" cx="56" cy="152.5" r="12"></circle>
                <circle id="椭圆形" fill="#FCFF00" cx="63" cy="331.5" r="12"></circle>
                <circle id="椭圆形" fill="#EB0302" cx="87" cy="375.5" r="12"></circle>
                <circle id="椭圆形" fill="#FCFF00" cx="139" cy="587.5" r="12"></circle>
                <circle id="椭圆形" fill="#FCFF00" cx="76" cy="657.5" r="12"></circle>
                <circle id="椭圆形" fill="#EB0302" cx="178" cy="782.5" r="12"></circle>
                <circle id="椭圆形" fill="#FCFF00" cx="37" cy="942.5" r="12"></circle>
                <circle id="椭圆形" fill="#EB0302" cx="52" cy="942.5" r="12"></circle>
                <circle id="椭圆形" fill="#05BB07" cx="116" cy="1091.5" r="8"></circle>
                <circle id="椭圆形" fill="#FDF400" cx="91" cy="1249.5" r="19"></circle>
                <circle id="椭圆形" fill="#05BB07" cx="155" cy="1292.5" r="8"></circle>
                <circle id="椭圆形" fill="#FF2E87" cx="110" cy="831.5" r="6"></circle>
                <circle id="椭圆形" fill="#890959" opacity="0.738606771" cx="93" cy="652.5" r="17"></circle>
                <circle id="椭圆形" fill="#05BC07" cx="158" cy="422.5" r="9"></circle>
                <rect id="矩形" fill="#2703D8" opacity="0.856840588" transform="translate(48.976810, 1269.110599) rotate(-39.000000) translate(-48.976810, -1269.110599) " x="9.47680957" y="1261.1106" width="79" height="16" rx="8"></rect>
                <rect id="矩形" fill="#D7686B" transform="translate(216.636188, 1241.510666) rotate(-39.000000) translate(-216.636188, -1241.510666) " x="137.636188" y="1224.51067" width="158" height="34" rx="17"></rect>
                <circle id="椭圆形" fill="#EB0302" cx="106" cy="259.5" r="12"></circle>
                <circle id="椭圆形" fill="#05BB07" opacity="0.726911272" cx="67" cy="165.5" r="9"></circle>
            </g>
        </g>
    </g>
</svg>