<?xml version="1.0" encoding="UTF-8"?>
<svg width="311px" height="1875px" viewBox="0 0 311 1875" version="1.1" xmlns="http://www.w3.org/2000/svg" xmlns:xlink="http://www.w3.org/1999/xlink">
    <title>编组 6</title>
    <g id="网页再来一版" stroke="none" stroke-width="1" fill="none" fill-rule="evenodd">
        <g id="6-Airdrop" transform="translate(-68.000000, -715.000000)">
            <g id="编组-6" transform="translate(68.926146, 715.000000)">
                <circle id="椭圆形" fill="#FF7E00" cx="192.073854" cy="34" r="34"></circle>
                <circle id="椭圆形" fill="#FF7E00" cx="200.073854" cy="979" r="34"></circle>
                <circle id="椭圆形" fill="#FF7E00" cx="84.073854" cy="1575" r="34"></circle>
                <circle id="椭圆形" fill="#EB0302" cx="46.073854" cy="34" r="12"></circle>
                <circle id="椭圆形" fill="#05BC07" cx="89.073854" cy="157" r="9"></circle>
                <circle id="椭圆形" fill="#FF2E87" cx="173.573854" cy="159.5" r="11.5"></circle>
                <circle id="椭圆形" fill="#05BC07" cx="216.073854" cy="598" r="8.5"></circle>
                <circle id="椭圆形" fill="#EB0302" cx="145.073854" cy="767" r="13"></circle>
                <circle id="椭圆形" fill="#EB0302" cx="115.073854" cy="1013" r="13"></circle>
                <circle id="椭圆形" fill="#FF2E87" cx="120.073854" cy="1236" r="13"></circle>
                <circle id="椭圆形" fill="#D8D8D8" cx="57.073854" cy="1803" r="13"></circle>
                <circle id="椭圆形" fill="#FDF400" cx="171.573854" cy="260.5" r="20"></circle>
                <circle id="椭圆形" cx="289.573854" cy="260.5" r="20"></circle>
                <circle id="椭圆形" fill="#FDF400" cx="142.573854" cy="1341.5" r="20"></circle>
                <circle id="椭圆形" fill="#FDF400" cx="142.573854" cy="1854.5" r="20"></circle>
                <circle id="椭圆形" fill="#FDF400" cx="102.573854" cy="661.5" r="20"></circle>
                <circle id="椭圆形" fill="#FDF400" cx="102.573854" cy="903.5" r="20"></circle>
                <circle id="椭圆形" fill="#FDF400" cx="83.573854" cy="1066.5" r="20"></circle>
                <circle id="椭圆形" fill="#3FFD00" opacity="0.822195871" cx="112.073854" cy="920" r="9"></circle>
                <circle id="椭圆形" fill="#EB0302" cx="81.573854" cy="1083.5" r="13"></circle>
                <rect id="矩形" fill="#1F0A92" transform="translate(166.106071, 1126.590978) rotate(-39.000000) translate(-166.106071, -1126.590978) " x="127.106071" y="1120.09098" width="78" height="13" rx="6.5"></rect>
                <rect id="矩形" fill="#D703D8" transform="translate(170.747706, 1263.135511) rotate(-39.000000) translate(-170.747706, -1263.135511) " x="118.747706" y="1251.13551" width="104" height="24" rx="12"></rect>
                <rect id="矩形" fill="#2703D8" transform="translate(127.747706, 1415.135511) rotate(-39.000000) translate(-127.747706, -1415.135511) " x="75.7477065" y="1403.13551" width="104" height="24" rx="12"></rect>
                <rect id="矩形" fill="#D7686B" transform="translate(84.964832, 520.462780) rotate(-39.000000) translate(-84.964832, -520.462780) " x="-4.53516828" y="496.46278" width="179" height="48" rx="24"></rect>
                <rect id="矩形" fill="#2703D8" transform="translate(47.389018, 431.773691) rotate(-39.000000) translate(-47.389018, -431.773691) " x="-7.11098197" y="423.773691" width="109" height="16" rx="8"></rect>
                <rect id="矩形" fill="#D5CE04" opacity="0.771740141" transform="translate(178.242416, 477.887961) rotate(-39.000000) translate(-178.242416, -477.887961) " x="123.742416" y="464.887961" width="109" height="26" rx="13"></rect>
                <circle id="椭圆形" fill="#EB0302" cx="90.573854" cy="301.5" r="12"></circle>
                <circle id="椭圆形" fill="#FF2E87" cx="74.573854" cy="273.5" r="6"></circle>
                <circle id="椭圆形" fill="#FF2E87" cx="116.573854" cy="441.5" r="6"></circle>
                <circle id="椭圆形" fill="#FF2E87" cx="57.573854" cy="887.5" r="6"></circle>
                <circle id="椭圆形" fill="#05BC07" cx="72.073854" cy="1299" r="9.5"></circle>
                <circle id="椭圆形" fill="#05BC07" cx="118.073854" cy="1499" r="9.5"></circle>
                <circle id="椭圆形" fill="#EB0302" cx="182.073854" cy="1647" r="11.5"></circle>
                <circle id="椭圆形" fill="#FCFF00" cx="196.073854" cy="1647" r="11.5"></circle>
                <circle id="椭圆形" fill="#05BC07" cx="225.073854" cy="1708" r="10"></circle>
                <circle id="椭圆形" fill="#FF2E87" cx="124.073854" cy="1756" r="6"></circle>
            </g>
        </g>
    </g>
</svg>