<?xml version="1.0" encoding="UTF-8"?>
<svg width="26px" height="26px" viewBox="0 0 26 26" version="1.1" xmlns="http://www.w3.org/2000/svg" xmlns:xlink="http://www.w3.org/1999/xlink">
    <title>编组</title>
    <g id="网页再来一版" stroke="none" stroke-width="1" fill="none" fill-rule="evenodd">
        <g id="6-Airdrop" transform="translate(-727.000000, -1929.000000)" fill-rule="nonzero">
            <g id="编组-7" transform="translate(698.000000, 1760.000000)">
                <g id="编组" transform="translate(29.000000, 169.000000)">
                    <polygon id="路径" fill="#202425" opacity="0.01" points="0 0 26 0 26 26 0 26"></polygon>
                    <path d="M4.33333334,16.4666667 C4.33333334,15.9880199 4.72135322,15.6 5.2,15.6 L20.8,15.6 C21.2786468,15.6 21.6666667,15.9880199 21.6666667,16.4666667 L21.6666667,24.5977333 C21.6666667,24.8979814 21.5109545,25.1767565 21.2555249,25.3345686 C21.0000953,25.4923807 20.6811821,25.5067443 20.4126,25.3725333 L13.3874,21.8608 C13.1435107,21.7389281 12.8564893,21.7389281 12.6126,21.8608 L5.5874,25.3725333 C5.31881787,25.5067443 4.99990471,25.4923807 4.74447509,25.3345686 C4.48904547,25.1767565 4.33333334,24.8979814 4.33333334,24.5977333 L4.33333334,16.4666667 Z" id="路径" fill="#F7BE6E"></path>
                    <path d="M23.4,11.2666667 C23.4,17.0100667 18.7434,21.6666667 13,21.6666667 C7.2566,21.6666667 2.6,17.0100667 2.6,11.2666667 C2.6,5.52326666 7.2566,0.866666658 13,0.866666658 C18.7434,0.866666658 23.4,5.52326666 23.4,11.2666667 Z" id="路径" fill="#DBA04C"></path>
                    <path d="M12.6091333,6.01986666 C12.6811589,5.86938812 12.8331723,5.77361897 13,5.77361897 C13.1668277,5.77361897 13.3188411,5.86938812 13.3908667,6.01986666 L14.6466667,8.64933334 C14.7099385,8.7816125 14.835814,8.87292115 14.9812,8.892 L17.8706667,9.27333334 C18.0361336,9.29522048 18.1743219,9.41019502 18.2259361,9.56892231 C18.2775502,9.7276496 18.2334143,9.9019114 18.1124667,10.0169333 L15.9986667,12.0232667 C15.8919985,12.1242129 15.8437181,12.2723161 15.8704,12.4167333 L16.4016667,15.2819333 C16.4318389,15.4460499 16.365096,15.6129105 16.2300647,15.710947 C16.0950334,15.8089834 15.9157068,15.820776 15.769,15.7412667 L13.208,14.3511333 C13.0788536,14.2808524 12.9228798,14.2808524 12.7937333,14.3511333 L10.2327333,15.7412667 C10.0860266,15.820776 9.90669997,15.8089835 9.77166862,15.710947 C9.63663727,15.6129106 9.56989437,15.4460499 9.60006666,15.2819333 L10.1304667,12.4167333 C10.1573656,12.2724664 10.1094196,12.1243881 10.0030667,12.0232667 L7.89013334,10.0169333 C7.7692279,9.90202953 7.72500416,9.7279308 7.77641638,9.56925567 C7.8278286,9.41058054 7.96574962,9.29549841 8.13106666,9.27333334 L11.0205333,8.892 C11.1659194,8.87292114 11.2917948,8.7816125 11.3550667,8.64933334 L12.61,6.01986666 L12.6091333,6.01986666 Z" id="路径" fill="#FFFFFF"></path>
                </g>
            </g>
        </g>
    </g>
</svg>