<?xml version="1.0" encoding="UTF-8"?>
<svg width="12px" height="12px" viewBox="0 0 12 12" version="1.1" xmlns="http://www.w3.org/2000/svg" xmlns:xlink="http://www.w3.org/1999/xlink">
    <title>©</title>
    <g id="控件" stroke="none" stroke-width="1" fill="none" fill-rule="evenodd">
        <g id="编组-11" transform="translate(-720.000000, -400.000000)" fill="#FFFFFF" fill-rule="nonzero">
            <g id="编组-10" transform="translate(720.000000, 390.000000)">
                <g id="©" transform="translate(0.000000, 10.000000)">
                    <path d="M6.00886263,0 C2.62333826,0 0,2.75294118 0,6.01764706 C0,9.28235294 2.605613,12 5.97341211,12 C9.35893648,12 12,9.24705882 12,5.98235294 C12,2.7 9.37666174,0 6.00886263,0 Z M6.00886263,0.811764706 C8.9689808,0.811764706 11.2555391,3.14117647 11.2555391,5.98235294 C11.2555391,8.82352941 8.95125554,11.1882353 5.97341211,11.1882353 C3.01329394,11.1882353 0.762186115,8.85882353 0.762186115,6.01764706 C0.762186115,3.17647059 3.0310192,0.811764706 6.00886263,0.811764706 Z M6.09748892,2.91176471 C4.28951256,2.91176471 2.85376662,4.27058824 2.85376662,6 C2.85376662,7.74705882 4.2717873,9.12352941 6.0620384,9.12352941 C6.93057607,9.12352941 7.78138848,8.75294118 8.40177253,8.15294118 L7.92319055,7.64117647 C7.42688331,8.08235294 6.75332349,8.36470588 6.09748892,8.36470588 C4.73264402,8.36470588 3.63367799,7.30588235 3.63367799,5.98235294 C3.63367799,4.69411765 4.73264402,3.65294118 6.09748892,3.65294118 C6.788774,3.65294118 7.42688331,3.93529412 7.92319055,4.39411765 L8.40177253,3.82941176 C7.79911374,3.26470588 6.94830133,2.91176471 6.09748892,2.91176471 Z" id="形状"></path>
                </g>
            </g>
        </g>
    </g>
</svg>