<?xml version="1.0" encoding="UTF-8"?>
<svg width="8px" height="14px" viewBox="0 0 8 14" version="1.1" xmlns="http://www.w3.org/2000/svg" xmlns:xlink="http://www.w3.org/1999/xlink">
    <title>路径</title>
    <g id="网页再来一版" stroke="none" stroke-width="1" fill="none" fill-rule="evenodd">
        <g id="3-Reward" transform="translate(-1098.000000, -1878.000000)" fill="#313131" fill-rule="nonzero">
            <path d="M1101.50314,1881.49446 L1101.99634,1881 L1108.79726,1887.80649 C1109.06583,1888.07537 1109.06932,1888.52094 1108.79726,1888.79331 C1108.6668,1888.92485 1108.48935,1888.99888 1108.3042,1888.99901 C1108.11905,1888.99914 1107.94149,1888.92536 1107.81085,1888.79401 L1101.99774,1882.97714 L1096.18951,1888.79471 C1096.05908,1888.92611 1095.88169,1889 1095.69665,1889 C1095.51162,1889 1095.33423,1888.92611 1095.2038,1888.79471 C1094.93261,1888.52174 1094.93199,1888.08092 1095.2024,1887.80719 L1101.47593,1881.52379 L1101.50384,1881.49516 L1101.50314,1881.49446 Z" id="路径" transform="translate(1102.000000, 1885.000000) rotate(-270.000000) translate(-1102.000000, -1885.000000) "></path>
        </g>
    </g>
</svg>