<?xml version="1.0" encoding="UTF-8"?>
<svg width="18px" height="18px" viewBox="0 0 18 18" version="1.1" xmlns="http://www.w3.org/2000/svg" xmlns:xlink="http://www.w3.org/1999/xlink">
    <title>编组 4</title>
    <g id="网页再来一版" stroke="none" stroke-width="1" fill="none" fill-rule="evenodd">
        <g id="4-分享链接" transform="translate(-1269.000000, -1861.000000)" fill-rule="nonzero">
            <g id="编组-4" transform="translate(1269.000000, 1861.000000)">
                <path d="M12.1122581,18 L1.74193548,18 C0.779891081,18 0,17.2180911 0,16.2535576 L0,4.41267788 C0.00638351623,3.45269431 0.784408014,2.6778784 1.74193548,2.6778784 L12.1122581,2.6778784 C13.0697855,2.6778784 13.84781,3.45269431 13.8541935,4.41267788 L13.8541935,16.2535576 C13.8541935,17.2180911 13.0743025,18 12.1122581,18 L12.1122581,18 Z" id="形状" fill="#979797"></path>
                <path d="M10.6606452,7.39327296 L3.19354839,7.39327296 C2.87286692,7.39327296 2.61290323,7.13263666 2.61290323,6.81112549 C2.61290323,6.48961431 2.87286692,6.22897801 3.19354839,6.22897801 L10.6606452,6.22897801 C10.9813266,6.22897801 11.2412903,6.48961431 11.2412903,6.81112549 C11.2412903,7.13263666 10.9813266,7.39327296 10.6606452,7.39327296 Z M10.6606452,10.9210867 L3.19354839,10.9210867 C2.87286692,10.9210867 2.61290323,10.6604504 2.61290323,10.3389392 C2.61290323,10.017428 2.87286692,9.75679172 3.19354839,9.75679172 L10.6606452,9.75679172 C10.9813266,9.75679172 11.2412903,10.017428 11.2412903,10.3389392 C11.2412903,10.6604504 10.9813266,10.9210867 10.6606452,10.9210867 Z M10.6606452,14.4372574 L3.19354839,14.4372574 C2.87286692,14.4372574 2.61290323,14.1766211 2.61290323,13.85511 C2.61290323,13.5335988 2.87286692,13.2729625 3.19354839,13.2729625 L10.6606452,13.2729625 C10.9813266,13.2729625 11.2412903,13.5335988 11.2412903,13.85511 C11.2412903,14.1766211 10.9813266,14.4372574 10.6606452,14.4372574 Z" id="形状" fill="#FFFFFF"></path>
                <path d="M16.2580645,0 L5.88774194,0 C4.92569753,0 4.14580645,0.78190891 4.14580645,1.74644243 L4.14580645,3.26002587 L5.30709677,3.26002587 L5.30709677,1.74644243 C5.30709677,1.42493126 5.56706047,1.16429495 5.88774194,1.16429495 L16.2580645,1.16429495 C16.578746,1.16429495 16.8387097,1.42493126 16.8387097,1.74644243 L16.8387097,13.5873221 C16.8387415,13.7406684 16.7771986,13.8875712 16.6679594,13.9949026 C16.5587201,14.102234 16.4109832,14.1609562 16.2580645,14.1578266 L13.2735484,14.1578266 L13.2735484,15.3221216 L16.2580645,15.3221216 C17.215592,15.3221216 17.9936165,14.5473057 18,13.5873221 L18,1.74644243 C18,0.78190891 17.2201089,0 16.2580645,0 Z" id="路径" fill="#979797"></path>
            </g>
        </g>
    </g>
</svg>