<?xml version="1.0" encoding="UTF-8"?>
<svg width="49px" height="48px" viewBox="0 0 49 48" version="1.1" xmlns="http://www.w3.org/2000/svg" xmlns:xlink="http://www.w3.org/1999/xlink">
    <title>tg</title>
    <g id="网页再来一版" stroke="none" stroke-width="1" fill="none" fill-rule="evenodd">
        <g id="1首页" transform="translate(-242.000000, -674.000000)">
            <g id="tg" transform="translate(242.000000, 674.000000)">
                <g id="编组-3备份" fill="#1E8C96">
                    <ellipse id="椭圆形" cx="24.166542" cy="24" rx="24.166542" ry="24"></ellipse>
                </g>
                <g id="编组" transform="translate(7.098922, 11.378571)" fill="#FFFFFF">
                    <path d="M11.0326128,22.521798 C11.0857963,21.7058226 11.1329247,20.9384283 11.1863271,20.1715325 C11.2763525,18.8811446 11.3814794,17.5916115 11.4550172,16.3003688 C11.4741312,15.9649321 11.5916603,15.7326409 11.8467079,15.5084702 C15.8476582,11.9914064 19.8418967,8.46700544 23.8296422,4.93569492 C23.9781039,4.80419859 24.0452946,4.58515675 24.1504215,4.40693149 C23.9223669,4.39781366 23.6889867,4.35635598 23.4680086,4.39069034 C23.3107195,4.4151233 23.1659056,4.53522234 23.0224778,4.6233377 C18.0367927,7.68778638 13.0508887,10.7518077 8.07023748,13.823807 C7.82139095,13.9772432 7.60945921,14.0081583 7.3273456,13.9206841 C5.30308742,13.2924792 3.27226337,12.6842196 1.24676497,12.0592915 C0.960128201,11.9708912 0.670573269,11.8588415 0.418589712,11.7020574 C-0.1047832,11.3766646 -0.142281622,10.8889314 0.333817015,10.4977904 C0.589448279,10.2878664 0.88994633,10.1060795 1.20058501,9.98754755 C4.2644395,8.81846964 7.33405738,7.66399452 10.4029457,6.5078098 C16.0086679,4.39610406 21.6149738,2.28582298 27.2214255,0.176183 C27.3684281,0.120763635 27.5178382,0.0629223445 27.6715525,0.0347140304 C28.5639274,-0.128765972 29.238826,0.290583385 29.2766892,1.17821925 C29.3060897,1.8629832 29.1533238,2.56555543 29.0086558,3.24540429 C28.2233046,6.9367044 27.4161401,10.6236593 26.6145931,14.3117539 C26.0097304,17.0949742 25.4019496,19.8776959 24.7951172,22.6605601 C24.7876029,22.6953218 24.7765139,22.7293 24.7661544,22.7634919 C24.3778195,24.0510305 23.4028606,24.3873221 22.2830877,23.5997687 C21.1296829,22.7884948 19.9921092,21.9559933 18.8475319,21.1328234 C17.8789929,20.436306 16.9016994,19.7508297 15.9474594,19.0360054 C15.6907338,18.8437472 15.5562064,18.8847063 15.3460256,19.0868659 C14.3415932,20.0526445 13.3182656,20.9995463 12.3083616,21.9598399 C11.9670822,22.2845205 11.5953809,22.5225103 11.0326128,22.521798" id="Fill-1"></path>
                </g>
            </g>
        </g>
    </g>
</svg>