<?xml version="1.0" encoding="UTF-8"?>
<svg width="55px" height="55px" viewBox="0 0 55 55" version="1.1" xmlns="http://www.w3.org/2000/svg" xmlns:xlink="http://www.w3.org/1999/xlink">
    <title>编组 10</title>
    <defs>
        <linearGradient x1="50%" y1="0%" x2="50%" y2="100%" id="linearGradient-1">
            <stop stop-color="#FFCAB1" offset="0%"></stop>
            <stop stop-color="#FA995F" offset="100%"></stop>
        </linearGradient>
    </defs>
    <g id="网页再来一版" stroke="none" stroke-width="1" fill="none" fill-rule="evenodd">
        <g id="3-Reward" transform="translate(-476.000000, -1890.000000)">
            <g id="编组-10" transform="translate(476.000000, 1890.000000)">
                <rect id="矩形" fill="#FFF0EA" x="0" y="0" width="55" height="55" rx="18"></rect>
                <path d="M24.5281786,15.1614941 C28.8567343,15.1614941 31.4412051,17.7906615 31.4412051,22.1952781 C31.4412051,25.4271045 31.0585673,29.3560864 28.1901976,31.5586547 L28.1901976,31.7752038 C32.0297712,32.3603803 35.8291735,34.0342165 35.8291735,36.5942338 C35.8300507,39.0603394 33.8099649,42 24.1819098,42 C16.6567213,42 13,40.2322522 13,36.5942338 C13,34.0353863 16.7991095,32.3603803 20.6398531,31.7752038 L20.6398531,31.5586547 C17.7726209,29.3557615 17.3900156,25.4267795 17.3900156,22.1952781 C17.3900156,17.7906615 19.9735764,15.1614941 24.3018396,15.1614941 L24.5281786,15.1614941 Z M31.3581318,13 C35.4829368,13 38.0446243,15.5236874 38.0446243,19.5871027 C38.0446243,21.4431729 37.687695,25.8734608 34.5069878,28.2958277 L34.5069878,29.0355197 C37.9024961,29.657091 42,31.7001395 42,34.1854499 L42,34.1874971 C42,34.7745584 41.524506,35.250583 40.937565,35.2516228 C40.350429,35.2511029 39.87474,34.7751758 39.87474,34.188147 L39.87474,34.1850275 C39.87474,33.3698488 36.8462038,31.3897113 33.3339834,31.0165995 C32.7963794,30.9580429 32.3816953,30.5066498 32.3816953,29.958453 L32.3816953,27.7389872 C32.3817928,27.3629508 32.575988,27.032278 32.8695723,26.8416602 C35.6229849,25.0844084 35.9192993,21.1820077 35.9192993,19.5859329 C35.9192993,15.905378 33.4391251,15.1322808 31.3581968,15.1322808 C30.7711583,15.1312734 30.2956968,14.6552813 30.2956968,14.0682201 L30.2956968,14.0640607 C30.2956968,13.4769994 30.7711908,13.0009749 31.3581318,13 Z" id="形状结合" fill="url(#linearGradient-1)" fill-rule="nonzero"></path>
            </g>
        </g>
    </g>
</svg>