<?xml version="1.0" encoding="UTF-8"?>
<svg width="36px" height="26px" viewBox="0 0 36 26" version="1.1" xmlns="http://www.w3.org/2000/svg" xmlns:xlink="http://www.w3.org/1999/xlink">
    <title>形状</title>
    <g id="网页再来一版" stroke="none" stroke-width="1" fill="none" fill-rule="evenodd">
        <g id="1首页" transform="translate(-1447.000000, -5319.000000)" fill="#FFFFFF" fill-rule="nonzero">
            <g id="编组-11" transform="translate(0.000000, 5244.000000)">
                <g id="编组-3" transform="translate(1234.000000, 73.000000)">
                    <path d="M248.26875,6.0625 C247.875,4.4375 246.6375,3.21875 245.0625,2.75446429 C242.25,2 231,2 231,2 C231,2 219.75,2 216.9375,2.75446429 C215.3625,3.16071429 214.18125,4.4375 213.73125,6.0625 C213,8.96428571 213,15 213,15 C213,15 213,21.0357143 213.73125,23.9375 C214.125,25.5625 215.3625,26.78125 216.9375,27.2455357 C219.75,28 231,28 231,28 C231,28 242.25,28 245.0625,27.2455357 C246.6375,26.8392857 247.81875,25.5625 248.26875,23.9375 C249,21.0357143 249,15 249,15 C249,15 249,8.96428571 248.26875,6.0625 Z M227.4,20.5714286 L227.4,9.42857143 L236.7375,15 L227.4,20.5714286 Z" id="形状"></path>
                </g>
            </g>
        </g>
    </g>
</svg>